<svg width="229" height="49" viewBox="0 0 229 49" fill="none" xmlns="http://www.w3.org/2000/svg">
<path d="M26.375 15.6875C26 12.125 23.125 10 18.5625 10C13.8125 10 11.1875 12.1875 11.125 15.1875C11.0625 18.4375 14.5 19.9375 18.375 20.8125L22.4375 21.8125C30.1875 23.5625 36 27.5 36 35.0625C36 43.375 29.5 48.625 18.5 48.625C7.5625 48.625 0.5625 43.5625 0.3125 33.875H9.4375C9.75 38.4375 13.375 40.75 18.375 40.75C23.3125 40.75 26.5 38.4375 26.5 35.0625C26.5 32 23.6875 30.5625 18.75 29.3125L13.8125 28.125C6.1875 26.25 1.5 22.4375 1.5 15.8125C1.5 7.5625 8.75 2.125 18.625 2.125C28.625 2.125 35.25 7.6875 35.375 15.6875H26.375ZM51.5 2.75V48H42.125V2.75H51.5ZM89.1875 17.3125C87.9375 13.0625 84.5 10.4375 79.5625 10.4375C72.5625 10.4375 67.8125 15.8125 67.8125 25.3125C67.8125 34.875 72.4375 40.3125 79.625 40.3125C86.0938 40.3125 89.9375 36.6562 90.0625 30.9375H80.25V23.875H99.125V29.5C99.125 41.375 91 48.625 79.5625 48.625C66.875 48.625 58.25 39.75 58.25 25.4375C58.25 10.75 67.4375 2.125 79.375 2.125C89.5625 2.125 97.4375 8.375 98.6875 17.3125H89.1875ZM121.188 48.6875C110.812 48.6875 104.438 41.9375 104.438 31.1875C104.438 20.6875 110.875 13.625 120.812 13.625C129.75 13.625 136.75 19.25 136.75 30.8125V33.4375H113.562C113.562 38.5625 116.625 41.75 121.375 41.75C124.5 41.75 126.75 40.375 127.688 38.3125H136.5C135.188 44.5625 129.562 48.6875 121.188 48.6875ZM113.562 27.625H128C128 23.5 125.125 20.5625 121 20.5625C116.75 20.5625 113.719 23.7188 113.562 27.625ZM151.812 28.375V48H142.562V14.0625H151.375V20H151.75C153.312 16.0625 156.938 13.625 161.938 13.625C169 13.625 173.688 18.4375 173.625 26.375V48H164.438V28C164.438 23.8125 162.125 21.3125 158.312 21.3125C154.438 21.3125 151.812 23.875 151.812 28.375ZM180.812 48V14.0625H190.062V48H180.812ZM185.438 9.625C182.625 9.625 180.375 7.5 180.375 4.9375C180.375 2.3125 182.625 0.1875 185.438 0.1875C188.188 0.1875 190.438 2.3125 190.438 4.9375C190.438 7.5 188.188 9.625 185.438 9.625ZM212.625 48.6875C202.25 48.6875 195.875 41.9375 195.875 31.1875C195.875 20.6875 202.312 13.625 212.25 13.625C221.188 13.625 228.188 19.25 228.188 30.8125V33.4375H205C205 38.5625 208.062 41.75 212.812 41.75C215.938 41.75 218.188 40.375 219.125 38.3125H227.938C226.625 44.5625 221 48.6875 212.625 48.6875ZM205 27.625H219.438C219.438 23.5 216.562 20.5625 212.438 20.5625C208.188 20.5625 205.156 23.7188 205 27.625Z" fill="url(#paint0_linear_8_14)"/>
<defs>
<linearGradient id="paint0_linear_8_14" x1="-2" y1="48" x2="231" y2="-13" gradientUnits="userSpaceOnUse">
<stop stop-color="#4A8DF5"/>
<stop offset="1" stop-color="#2B528F"/>
</linearGradient>
</defs>
</svg>
